<svg width="20" height="20" viewBox="0 0 20 20" fill="none" xmlns="http://www.w3.org/2000/svg">
<path fill-rule="evenodd" clip-rule="evenodd" d="M2.5 3.12524C2.5 2.95948 2.56585 2.80051 2.68306 2.6833C2.80027 2.56609 2.95924 2.50024 3.125 2.50024H10.625C10.7908 2.50024 10.9497 2.56609 11.0669 2.6833C11.1842 2.80051 11.25 2.95948 11.25 3.12524C11.25 3.291 11.1842 3.44998 11.0669 3.56719C10.9497 3.6844 10.7908 3.75024 10.625 3.75024H4.63375L17.3175 16.4327C17.4349 16.5501 17.5008 16.7093 17.5008 16.8752C17.5008 17.0412 17.4349 17.2004 17.3175 17.3177C17.2001 17.4351 17.041 17.501 16.875 17.501C16.709 17.501 16.5499 17.4351 16.4325 17.3177L3.75 4.63399V10.6252C3.75 10.791 3.68415 10.95 3.56694 11.0672C3.44973 11.1844 3.29076 11.2502 3.125 11.2502C2.95924 11.2502 2.80027 11.1844 2.68306 11.0672C2.56585 10.95 2.5 10.791 2.5 10.6252V3.12524Z" fill="white"/>
</svg>
