<svg width="21" height="20" viewBox="0 0 21 20" fill="inherit" xmlns="http://www.w3.org/2000/svg">
<path fill-rule="evenodd" clip-rule="evenodd" d="M18.0008 16.8748C18.0008 17.0406 17.9349 17.1995 17.8177 17.3168C17.7005 17.434 17.5415 17.4998 17.3758 17.4998H9.87579C9.71003 17.4998 9.55106 17.434 9.43385 17.3168C9.31664 17.1995 9.25079 17.0406 9.25079 16.8748C9.25079 16.7091 9.31664 16.5501 9.43385 16.4329C9.55106 16.3157 9.71003 16.2498 9.87579 16.2498H15.867L3.18329 3.56731C3.12518 3.5092 3.07908 3.44022 3.04764 3.36429C3.01619 3.28837 3 3.20699 3 3.12481C3 3.04263 3.01619 2.96126 3.04764 2.88533C3.07908 2.80941 3.12518 2.74042 3.18329 2.68231C3.2414 2.6242 3.31039 2.57811 3.38631 2.54666C3.46223 2.51521 3.54361 2.49902 3.62579 2.49902C3.70797 2.49902 3.78934 2.51521 3.86527 2.54666C3.94119 2.57811 4.01018 2.6242 4.06829 2.68231L16.7508 15.3661V9.37481C16.7508 9.20905 16.8166 9.05008 16.9338 8.93287C17.0511 8.81566 17.21 8.74981 17.3758 8.74981C17.5415 8.74981 17.7005 8.81566 17.8177 8.93287C17.9349 9.05008 18.0008 9.20905 18.0008 9.37481V16.8748Z" fill="white"/>
</svg>
