<svg width="256" height="27" viewBox="0 0 256 27" fill="none" xmlns="http://www.w3.org/2000/svg">
<path opacity="0.958" fill-rule="evenodd" clip-rule="evenodd" d="M0 0C1.11015 0 2.22016 0 3.33032 0C3.30614 2.65137 3.33032 5.30218 3.40271 7.9527C4.02244 7.30526 4.77061 6.85551 5.64706 6.60358C9.5819 5.67965 13.5396 5.58492 17.5204 6.31955C21.1943 6.98801 23.2938 9.14191 23.819 12.7811C24.1056 14.9596 24.1056 17.1366 23.819 19.3137C23.3478 22.5203 21.5379 24.5795 18.3891 25.4912C14.6328 26.2695 10.8681 26.3177 7.09502 25.6332C5.38223 25.4643 4.15146 24.6363 3.40271 23.148C3.33046 23.9987 3.30628 24.8508 3.33032 25.7043C2.22016 25.7043 1.11015 25.7043 0 25.7043C0 17.1366 0 8.56804 0 0ZM9.55656 8.66276C11.9807 8.59346 14.3941 8.7119 16.7964 9.01779C19.0904 9.4221 20.3212 10.7712 20.4887 13.0651C20.8604 15.7009 20.7156 18.304 20.0543 20.8758C19.5731 21.9054 18.7768 22.5928 17.6652 22.935C16.9102 23.1679 16.138 23.3099 15.3484 23.361C13.0799 23.4562 10.8115 23.4562 8.54299 23.361C5.60492 23.3199 3.93976 21.8756 3.54751 19.0297C3.16728 16.5345 3.31207 14.0734 3.9819 11.645C4.32637 10.6448 4.97795 9.91105 5.93665 9.44383C7.1234 9.00785 8.32999 8.74754 9.55656 8.66276Z" fill="#697078"/>
<path opacity="0.939" fill-rule="evenodd" clip-rule="evenodd" d="M192 1.13599C193.158 1.13599 194.316 1.13599 195.475 1.13599C195.475 2.88743 195.475 4.63901 195.475 6.39045C199.577 6.39045 203.68 6.39045 207.782 6.39045C207.827 7.32631 207.78 8.24939 207.638 9.15969C203.583 9.2307 199.529 9.25441 195.475 9.2307C195.45 13.065 195.475 16.8994 195.547 20.7337C195.663 21.8386 196.267 22.5245 197.357 22.7929C199.506 23.1422 201.63 23.0471 203.728 22.5089C204.452 22.0629 204.91 21.4239 205.104 20.5917C205.266 19.4116 205.386 18.2286 205.466 17.0414C206.382 17.0414 207.3 17.0414 208.217 17.0414C208.421 19.3647 207.962 21.5418 206.841 23.574C205.644 24.8123 204.171 25.4982 202.425 25.6331C200.784 25.7283 199.142 25.7283 197.502 25.6331C194.646 25.528 192.884 24.1321 192.217 21.4438C192.008 17.378 191.936 13.3065 192 9.2307C190.649 9.2307 189.296 9.2307 187.945 9.2307C187.945 8.2839 187.945 7.33724 187.945 6.39045C189.296 6.39045 190.649 6.39045 192 6.39045C192 4.63901 192 2.88743 192 1.13599Z" fill="#84888E"/>
<path opacity="0.945" fill-rule="evenodd" clip-rule="evenodd" d="M57.485 5.82258C60.3602 5.65487 63.1597 6.0099 65.8831 6.88768C67.9319 7.76091 69.2591 9.25204 69.865 11.3611C70.3464 13.1447 70.4429 14.944 70.1546 16.7575C63.6734 16.8996 57.1816 16.9464 50.6795 16.8996C50.663 18.5938 51.025 20.2042 51.7655 21.728C52.5367 22.5318 53.4779 23.0288 54.589 23.2191C57.4323 23.4406 60.28 23.4875 63.132 23.3611C64.4054 23.364 65.5155 22.9606 66.4623 22.154C66.8074 21.5845 66.9522 20.9696 66.8967 20.3079C68.0551 20.3079 69.2135 20.3079 70.3718 20.3079C70.4635 22.901 69.2568 24.581 66.7519 25.3493C64.3771 25.9287 61.9639 26.19 59.5121 26.1304C56.9489 26.2184 54.439 25.9102 51.9827 25.2073C49.0801 23.9434 47.5597 21.7422 47.4216 18.6037C47.1242 15.8387 47.4138 13.1405 48.2904 10.509C49.1666 8.56101 50.6387 7.25918 52.7067 6.60365C54.2986 6.21411 55.8913 5.95366 57.485 5.82258ZM56.4714 8.66283C58.5035 8.61782 60.5306 8.68882 62.5528 8.87585C65.737 9.50681 67.185 11.424 66.8967 14.6274C61.4902 14.6742 56.0843 14.6274 50.6795 14.4853C50.6706 13.0851 50.9843 11.76 51.6207 10.509C53.0196 9.31836 54.6365 8.70302 56.4714 8.66283Z" fill="#70767E"/>
<path opacity="0.948" fill-rule="evenodd" clip-rule="evenodd" d="M104.398 5.82255C106.83 5.74487 109.243 5.9106 111.638 6.31959C114.462 7.00594 116.223 8.7338 116.923 11.503C117.131 12.4406 117.276 13.3876 117.357 14.3433C117.43 18.1293 117.454 21.9168 117.43 25.7043C116.32 25.7043 115.21 25.7043 114.1 25.7043C114.124 24.9459 114.099 24.1876 114.027 23.4321C112.674 25.1703 110.864 26.0465 108.597 26.0593C105.74 26.2099 102.892 26.1161 100.054 25.7753C95.1599 25.1405 93.4465 22.5133 94.914 17.8936C95.8331 16.144 97.3051 15.1741 99.3303 14.9824C103.296 14.4725 107.254 14.5208 111.204 15.1244C112.243 15.3147 113.184 15.7166 114.027 16.3315C114.172 14.2496 113.786 12.2615 112.869 10.3669C111.842 9.27317 110.563 8.72869 109.032 8.7338C106.366 8.58355 103.711 8.67828 101.068 9.01783C99.6893 9.30427 98.9653 10.1328 98.8959 11.503C97.7858 11.503 96.6758 11.503 95.5656 11.503C95.3845 9.60988 96.1085 8.16604 97.7376 7.17167C99.8889 6.30951 102.109 5.85976 104.398 5.82255ZM102.226 17.4676C104.109 17.4434 105.992 17.4676 107.873 17.5386C109.294 17.5826 110.694 17.7715 112.072 18.1066C113.812 18.7031 114.367 19.8633 113.738 21.5859C113.362 22.1384 112.855 22.5403 112.217 22.793C111.32 23.0728 110.403 23.2631 109.466 23.3611C106.956 23.4562 104.446 23.4562 101.937 23.3611C100.941 23.3171 99.9757 23.1282 99.0407 22.793C98.463 22.5104 98.101 22.0603 97.9548 21.4439C97.7958 20.4669 97.8923 19.5197 98.2443 18.6037C98.6246 18.216 99.0832 17.9561 99.6199 17.8226C100.508 17.6934 101.377 17.5741 102.226 17.4676Z" fill="#777D84"/>
<path opacity="0.95" fill-rule="evenodd" clip-rule="evenodd" d="M141.755 6.39062C142.866 6.39062 143.975 6.39062 145.086 6.39062C145.061 10.32 145.086 14.2496 145.158 18.1777C145.113 21.3999 146.731 23.1282 150.009 23.3611C151.794 23.4563 153.581 23.4563 155.366 23.3611C157.147 23.2688 158.74 22.7008 160.144 21.657C160.718 21.0279 161.08 20.2951 161.23 19.4558C161.303 15.1017 161.327 10.7459 161.303 6.39062C162.461 6.39062 163.62 6.39062 164.778 6.39062C164.778 12.8281 164.778 19.2669 164.778 25.7043C163.62 25.7043 162.461 25.7043 161.303 25.7043C161.327 24.804 161.303 23.9036 161.23 23.0061C160.572 23.9803 159.68 24.6662 158.552 25.0653C155.54 26.0508 152.451 26.3817 149.285 26.0594C146.998 26.0224 144.994 25.2882 143.276 23.8582C142.43 22.7192 141.948 21.4411 141.828 20.0238C141.755 15.4794 141.731 10.9353 141.755 6.39062Z" fill="#7E8289"/>
<path opacity="0.939" fill-rule="evenodd" clip-rule="evenodd" d="M231.383 1.15362C232.738 1.10647 234.089 1.1539 235.437 1.29563C238.272 6.90356 241.144 12.4891 244.052 18.0531C246.707 12.4678 249.362 6.88141 252.016 1.29563C253.331 1.15575 254.659 1.10846 255.998 1.15362C252.268 8.84927 248.382 16.4711 244.342 24.0176C242.842 25.7246 240.936 26.6477 238.623 26.7869C237.464 26.8778 236.306 26.9488 235.148 26.9999C235.148 26.0527 235.148 25.1069 235.148 24.1596C236.871 24.1895 238.56 23.9764 240.215 23.5206C240.893 23.282 241.448 22.8801 241.881 22.3135C242.176 21.7099 242.49 21.1192 242.822 20.5383C242.117 20.6008 241.61 20.3409 241.301 19.7573C237.991 13.5485 234.686 7.34678 231.383 1.15362Z" fill="#8B8F94"/>
</svg>
