<svg xmlns="http://www.w3.org/2000/svg" width="147" height="80" viewBox="0 0 147 80" fill="none">
<path d="M59.115 18.9502L56.8575 19.9002V23.2002C56.8575 25.6502 57.0675 26.5502 57.645 26.7502C58.3275 27.0002 58.4325 28.5002 58.4325 35.7502V44.4502H55.44H52.5L52.815 50.3002C53.025 53.5502 53.4975 57.4502 53.865 58.9502L54.495 61.7002L59.5875 61.8502L64.6275 62.0002L65.2575 59.3502C65.835 56.7002 66.78 48.4502 66.8325 45.8002C66.8325 44.5002 66.78 44.4502 63.6825 44.4502H60.5325V35.7502C60.5325 27.4502 60.585 27.0502 61.5825 26.8002C62.58 26.5502 62.685 26.2002 62.5275 22.4002C62.4225 20.1502 62.16 18.2002 61.845 18.1502C61.5825 18.1002 60.3225 18.4502 59.115 18.9502ZM61.0575 22.4502C61.0575 24.8002 60.9525 24.9502 59.745 24.9502C58.59 24.9502 58.4325 24.7502 58.4325 23.0502C58.4325 21.2502 59.115 20.4502 60.9525 20.0002C61.005 19.9502 61.0575 21.0502 61.0575 22.4502ZM64.7325 49.3502C64.7325 52.4002 64.1025 57.2002 63.3675 59.5502C63.1575 60.3002 62.475 60.4502 59.745 60.4502H56.385L55.5975 57.8002C55.1775 56.4002 54.6525 53.1002 54.4425 50.5502L54.075 45.9502H59.43H64.7325V49.3502Z" fill="#656D76"/>
<path d="M79.4327 31.2002V33.9502H77.3327H75.2852L75.5477 40.8002C75.8102 48.2002 76.5977 57.9002 77.1227 60.4002L77.4902 61.9502H84.4727C90.6677 61.9502 91.4552 61.8502 91.7177 61.0502C92.5052 58.7002 93.1352 52.3002 93.4502 43.5502L93.7652 33.9502H91.6127H89.4077V31.2002V28.4502H84.4202H79.4327V31.2002ZM87.8327 32.2002V33.9502H84.6827H81.5327V32.2002V30.4502H84.6827H87.8327V32.2002ZM91.8227 43.7502C91.6652 48.3002 91.2452 53.0502 90.9827 54.3502C90.7202 55.6502 90.4052 57.5502 90.1952 58.5502L89.8802 60.4502H84.6302C79.5902 60.4502 79.3802 60.4002 78.9077 59.2502C78.2252 57.4502 77.3327 47.4502 77.3327 41.0502V35.4502H84.7877H92.1902L91.8227 43.7502Z" fill="#656D76"/>
</svg>