<svg xmlns="http://www.w3.org/2000/svg" width="147" height="80" viewBox="0 0 147 80" fill="none">
<path d="M74.65 15C74.15 15.5 75.2 16.75 79.4 21L84.8 26.4L83.5 27.6L82.2 28.8L77 23.6C74.15 20.75 71.65 18.4 71.4 18.4C71.2 18.4 70.9 18.75 70.7 19.2C70.5 19.75 72 21.55 75.6 25.2L80.8 30.45L79.6 31.45L78.35 32.45L73.05 27.15C68.3 22.4 67.65 21.95 67.05 22.65C66.45 23.35 67.05 24.1 71.75 28.85L77.1 34.2L75.9 35.3L74.7 36.45L69.5 31.15C66.7 28.25 64.15 25.9 63.95 25.9C63.7 25.9 63.4 26.25 63.2 26.7C63 27.25 64.45 29.05 68.1 32.7L73.25 37.85L72.1 39.1L71 40.3L65.8 35.05C62.25 31.45 60.35 29.85 59.8 30.05C59.4 30.25 59.05 30.55 59.05 30.75C59.05 31 61.4 33.5 64.3 36.4L69.55 41.65L60.8 50.4L52 59.2L54.2 61.4C55.4 62.65 56.95 64.2 57.7 64.85L59 66L77 47.85L95 29.7L91.7 26.3L88.35 22.9L87.25 23.95L86.2 24.95L80.95 19.7C78.1 16.75 75.6 14.4 75.5 14.4C75.35 14.4 75 14.65 74.65 15ZM86.2 35.6C82.95 38.95 75.5 46.5 69.55 52.4L58.8 63.15L56.85 61.25L54.85 59.4L65.1 49.1C70.7 43.4 78.2 35.85 81.75 32.3L88.2 25.85L90.1 27.7L92.05 29.6L86.2 35.6Z" fill="#656D76"/>
</svg>