<svg xmlns="http://www.w3.org/2000/svg" width="141" height="80" viewBox="0 0 141 80" fill="none">
<path d="M65.4491 11.9C62.3991 12.9 61.1991 13.65 58.2991 16.4C54.3991 20.15 51.7991 24.85 50.1991 31.1C49.7491 32.95 49.4491 33.25 47.9491 33.55C46.7491 33.75 46.3491 34.05 46.5491 34.6C46.7491 35.05 47.2991 35.25 47.9991 35.1L49.1991 34.9V40.6C49.1991 50.5 51.8991 58.25 57.3491 64.1C61.5491 68.55 64.6991 70 70.1991 70C73.8491 70 74.8491 69.8 77.2991 68.6C80.8991 66.85 85.4491 62 87.5491 57.75C90.2491 52.2 91.2991 47.05 91.0991 39.95L90.9491 33.8L92.0991 34.55C93.1991 35.3 94.1991 35.15 94.1991 34.25C94.1991 33.95 93.3491 33.2 92.2491 32.5C90.6491 31.4 90.1491 30.65 89.2491 27.85C87.0491 21.25 81.8491 14.9 76.8491 12.65C73.8991 11.35 68.2491 11 65.4491 11.9ZM73.5991 13.35C76.2991 14 79.3491 15.9 81.9491 18.65C83.5991 20.3 88.4491 29.15 87.9991 29.6C87.8491 29.8 84.6991 28 80.6991 25.45C75.8991 22.45 68.5991 18.75 67.3991 18.75C66.1991 18.75 66.1491 19.7 67.2491 21.6C68.7491 24.25 68.0491 25.7 64.2491 27.95C61.4491 29.55 54.0991 32.25 52.3991 32.25C51.3491 32.25 51.8991 30.35 54.4491 25C58.9491 15.65 65.8991 11.45 73.5991 13.35ZM77.9491 25.85C78.4991 26.3 83.0491 29.1 86.5991 31.1C89.2491 32.65 89.4491 33.4 89.3991 41C89.3991 48 88.5491 51.6 85.6991 57.2C77.9491 72.4 62.4491 72.4 54.6991 57.2C52.4491 52.75 51.2991 48.8 50.8991 43.6C50.4991 39 50.9991 34.25 51.8991 34.25C52.8991 34.25 61.1491 31.5 63.4491 30.45C65.3491 29.55 66.8491 28.45 68.7991 26.6C69.3991 26.05 69.6991 25.05 69.6991 23.55V21.4L73.5491 23.4C75.6991 24.5 77.6491 25.65 77.9491 25.85Z" fill="#656D76"/>
<path d="M58.5998 34.6C55.3498 35.9 56.3498 37.2 59.5998 35.9C61.4998 35.15 61.8498 35.15 63.8498 35.95C66.4998 36.95 66.6998 36.95 66.6998 35.95C66.6998 35.05 63.7998 33.75 61.8498 33.8C61.0998 33.8 59.5998 34.15 58.5998 34.6Z" fill="#656D76"/>
<path d="M75.8492 34.4999C74.9492 34.8999 74.1992 35.5499 74.1992 35.9999C74.1992 36.9499 74.3992 36.9499 77.0492 35.9499C79.0492 35.1499 79.3492 35.1499 81.2992 35.9499C82.6992 36.4499 83.5492 36.5999 83.8992 36.2499C84.5492 35.5999 83.9492 35.0499 81.7492 34.2999C79.5492 33.5999 77.7992 33.6499 75.8492 34.4999Z" fill="#656D76"/>
<path d="M54.6992 38.55C54.6992 38.7 54.9492 39.25 55.1992 39.75C55.5492 40.45 55.5492 41 55.0992 41.7C54.2992 43 54.9492 43.65 56.2492 42.85C57.5992 42 58.0992 42.4 57.7992 44.25C57.5492 46.1 58.4992 46.3 59.1992 44.5C59.7992 42.95 61.1992 43.35 61.1992 45.05C61.1992 45.8 61.4992 46.25 61.9492 46.25C62.3992 46.25 62.6992 45.8 62.6992 45.05C62.6992 43.4 63.9492 43.05 64.6492 44.55C65.3992 46.3 66.3492 46.1 66.0992 44.25C65.7992 42.4 66.2992 42 67.6492 42.85C68.9492 43.65 69.5992 43 68.7492 41.65C68.2992 40.95 68.2492 40.5 68.6492 40.1C69.4992 39.25 69.2992 38.25 68.3492 38.25C67.8492 38.25 66.9992 38.9 66.4992 39.7C65.3992 41.3 62.6992 42.35 60.6492 41.9C59.8992 41.75 58.5492 40.9 57.6492 39.95C56.1992 38.45 54.6992 37.75 54.6992 38.55Z" fill="#656D76"/>
<path d="M71.6992 38.6C71.6992 38.75 72.0992 39.35 72.5492 39.9C73.3992 40.8 73.3992 40.85 72.5492 41.5C72.0992 41.8 71.6992 42.35 71.6992 42.7C71.6992 43.4 72.8492 43.4 73.5492 42.7C74.4492 41.8 75.0492 42.55 74.7992 44.25C74.5492 46.1 75.3492 46.25 76.4992 44.5C77.4492 43.05 78.1992 43.3 78.1992 45.05C78.1992 45.9 78.4492 46.25 79.1992 46.25C79.9492 46.25 80.1992 45.9 80.1992 45.05C80.1992 43.3 81.0992 42.95 81.6992 44.45C81.9492 45.15 82.3992 45.75 82.6992 45.75C83.4992 45.75 83.8992 44.3 83.2492 43.55C82.4992 42.65 84.0492 42 84.9992 42.8C86.0992 43.7 86.8992 42.8 85.8992 41.7C85.2492 40.95 85.1492 40.6 85.5992 40.15C86.3492 39.4 86.3992 38.25 85.6992 38.25C85.4492 38.25 84.5492 38.95 83.7492 39.75C80.8492 42.8 77.0992 42.8 74.4992 39.7C73.3992 38.4 71.6992 37.7 71.6992 38.6Z" fill="#656D76"/>
</svg>
