<svg xmlns="http://www.w3.org/2000/svg" width="141" height="80" viewBox="0 0 141 80" fill="none">
<path d="M65.25 17.4002C59.9 18.6502 57.5 21.9002 57.5 27.9002C57.5 30.8502 57.35 31.5502 56.5 32.1502C55.35 32.9502 53 36.1502 52.15 38.1002C50.65 41.5002 49.5 49.6502 49.5 56.8002C49.5 63.5002 49.55 64.0002 50.45 64.0002C51.3 64.0002 51.4 63.3502 51.65 55.8502C51.8 51.4002 52.2 46.4002 52.5 44.8002C53.15 41.5002 55.1 36.8002 56.4 35.3502C57.2 34.4502 57.25 34.9002 57.5 44.5502L57.75 54.7002L60.75 55.6502C65.05 57.0502 75.95 57.0502 80.25 55.6502L83.25 54.7002L83.5 44.5502C83.75 34.9002 83.8 34.4502 84.6 35.3502C85.9 36.8002 87.85 41.5002 88.5 44.8002C88.8 46.4002 89.2 51.4002 89.35 55.8502C89.6 63.3502 89.7 64.0002 90.55 64.0002C91.45 64.0002 91.5 63.5002 91.5 56.8002C91.5 49.6502 90.35 41.5002 88.85 38.1002C88 36.1502 85.65 32.9502 84.5 32.1502C83.65 31.5502 83.5 30.8502 83.5 27.9002C83.5 23.1002 82.25 20.5002 79.1 18.7502C77.1 17.6002 76.05 17.4002 71.75 17.2502C69 17.1502 66.1 17.2002 65.25 17.4002ZM77.9 20.5002C78.8 21.0502 79.95 22.2002 80.5 23.1002C81.45 24.6502 81.5 25.5002 81.4 39.0002L81.25 53.2502L78.5 53.9002C74.95 54.7002 66.05 54.7002 62.5 53.9002L59.75 53.2502L59.6 39.0002C59.5 25.5002 59.55 24.6502 60.5 23.1002C62.35 20.1002 64.05 19.5002 70.5 19.5002C75.35 19.5002 76.5 19.6502 77.9 20.5002Z" fill="#656D76"/>
</svg>
