<svg width="295" height="72" viewBox="0 0 295 72" fill="none" xmlns="http://www.w3.org/2000/svg">
<path opacity="0.963" fill-rule="evenodd" clip-rule="evenodd" d="M95.2147 0C95.5313 0.00924156 95.7584 0.160743 95.8958 0.454503C97.4037 2.74187 98.8918 5.03968 100.36 7.3478C92.4445 12.2702 84.4739 17.1183 76.4487 21.8919C76.2582 22.0407 76.0564 22.0911 75.8433 22.0434C75.0428 20.9203 74.2608 19.7841 73.4976 18.6346C73.3966 18.4831 73.3966 18.3316 73.4976 18.1801C80.7655 12.1407 88.0045 6.08065 95.2147 0Z" fill="#666D76"/>
<path opacity="0.974" fill-rule="evenodd" clip-rule="evenodd" d="M24.5383 25.6036C29.0917 25.5826 33.6318 25.8098 38.1588 26.2854C41.6723 26.616 44.901 27.7271 47.8445 29.6184C50.5136 31.9968 51.7243 35.0017 51.4767 38.6327C49.0049 38.6327 46.5329 38.6327 44.0611 38.6327C44.1493 36.0211 42.9891 34.2284 40.5803 33.2544C38.7589 32.6675 36.8923 32.3141 34.9807 32.1939C28.6248 31.8955 22.2685 31.8955 15.912 32.1939C13.6048 32.2536 11.4357 32.8092 9.4044 33.8604C8.05022 34.9937 7.3944 36.4582 7.43699 38.254C7.43726 39.7035 7.71471 41.0923 8.26936 42.4202C8.84853 43.2294 9.6305 43.7597 10.6151 44.011C11.9579 44.3401 13.32 44.5428 14.7013 44.617C20.9576 44.664 27.2129 44.764 33.4673 44.92C36.7379 45.0003 39.9664 45.4048 43.153 46.132C49.0168 47.8379 51.7913 51.7512 51.4767 57.8733C51.7294 61.0034 50.9474 63.8319 49.1309 66.3574C46.5895 68.7026 43.5878 70.0904 40.1262 70.5237C34.9589 71.2857 29.7628 71.6645 24.5383 71.6599C19.9163 71.6539 15.3257 71.2751 10.7665 70.5237C8.10848 70.0419 5.6871 69.0314 3.50217 67.4937C0.984996 65.153 -0.175276 62.2487 0.0213744 58.7824C2.49324 58.7824 4.96512 58.7824 7.43699 58.7824C7.35559 62.0563 8.86896 64.1516 11.9772 65.0696C13.5178 65.4636 15.0816 65.715 16.6687 65.8272C23.034 66.2044 29.3902 66.1029 35.7374 65.5242C38.0853 65.3302 40.2544 64.6227 42.245 63.4031C43.3772 62.3729 43.9572 61.0852 43.9854 59.5399C44.2773 57.4416 43.9241 55.4721 42.926 53.6313C41.7603 52.5345 40.3729 51.9027 38.7642 51.7376C37.5107 51.5239 36.2494 51.3724 34.9807 51.2831C28.5243 51.1179 22.0671 50.9664 15.6093 50.8286C12.0763 50.7786 8.64604 50.1726 5.31824 49.0105C2.54698 47.7485 0.907465 45.6033 0.399722 42.5717C-0.148428 39.8276 -0.0979716 37.1006 0.551061 34.3907C1.56732 31.4037 3.55996 29.3584 6.52896 28.2549C9.60523 27.1036 12.7833 26.3966 16.0633 26.1339C18.9083 25.8932 21.7334 25.7165 24.5383 25.6036Z" fill="#5D666F"/>
<path opacity="0.975" fill-rule="evenodd" clip-rule="evenodd" d="M86.1351 25.6036C90.3673 25.5077 94.5544 25.8865 98.6963 26.7399C107.055 28.8027 111.62 34.1304 112.392 42.7233C112.603 44.7897 112.653 46.8608 112.544 48.9348C112.392 49.5408 112.241 50.1468 112.09 50.7528C97.5971 50.9043 83.0938 50.9543 68.5798 50.9043C68.6037 53.5692 68.9315 56.1947 69.5635 58.7824C70.6377 62.5835 73.1348 64.7803 77.0548 65.3727C80.767 65.9135 84.5001 66.1408 88.2539 66.0544C92.0076 66.1438 95.7406 65.9165 99.453 65.3727C103.295 64.8348 105.212 62.6381 105.204 58.7824C107.676 58.7824 110.148 58.7824 112.619 58.7824C112.875 64.1091 110.554 67.7694 105.658 69.7662C101.433 71.1494 97.0944 71.8569 92.6427 71.8872C86.9586 72.1887 81.3085 71.8857 75.6927 70.9782C66.901 69.348 62.1338 64.0713 61.3912 55.1463C60.9128 50.0074 61.1649 44.9079 62.1479 39.8447C63.2274 34.6775 66.0777 30.8648 70.6986 28.4064C73.126 27.3695 75.6484 26.6625 78.2655 26.2854C80.9037 25.956 83.5268 25.7288 86.1351 25.6036ZM82.6543 31.9667C86.2396 31.9115 89.8213 31.9873 93.3994 32.1939C101.748 32.9149 105.683 37.4851 105.204 45.9048C92.9958 45.9048 80.7879 45.9048 68.5798 45.9048C68.6004 43.4999 68.8778 41.1263 69.4122 38.7842C70.4936 35.6822 72.6377 33.738 75.8441 32.9514C78.1058 32.41 80.3759 32.0818 82.6543 31.9667Z" fill="#626A73"/>
<path opacity="0.98" fill-rule="evenodd" clip-rule="evenodd" d="M150.454 25.6037C154.271 25.5579 158.054 25.8861 161.804 26.5884C165.156 27.2222 168.008 28.7623 170.355 31.2092C171.575 32.7926 172.433 34.5601 172.928 36.5118C173.341 38.1534 173.594 39.8199 173.684 41.5113C173.842 45.3731 173.917 49.2363 173.911 53.1011C173.917 59.0657 173.867 65.05 173.76 71.054C171.289 71.054 168.816 71.054 166.344 71.054C166.37 62.1154 166.344 53.1769 166.269 44.2383C166.225 42.1137 165.871 40.0432 165.209 38.0268C164.192 35.6453 162.452 34.0546 159.988 33.2545C156.48 32.2505 152.898 31.8211 149.243 31.9667C145.063 31.806 140.977 32.3362 136.985 33.5575C132.259 35.1595 129.862 38.4673 129.796 43.4808C129.72 52.6724 129.695 61.8624 129.72 71.054C127.248 71.054 124.777 71.054 122.305 71.054C122.305 56.3084 122.305 41.5617 122.305 26.8157C124.777 26.8157 127.248 26.8157 129.72 26.8157C129.695 29.1897 129.72 31.5633 129.796 33.9362C130.707 32.1655 131.993 30.7262 133.655 29.6185C136.369 27.9888 139.295 26.9283 142.433 26.4369C145.115 26.0073 147.787 25.7296 150.454 25.6037Z" fill="#666D76"/>
<path opacity="0.974" fill-rule="evenodd" clip-rule="evenodd" d="M208.113 25.6036C212.666 25.5826 217.207 25.8098 221.733 26.2854C225.247 26.616 228.475 27.7271 231.419 29.6184C234.088 31.9968 235.299 35.0017 235.051 38.6327C232.58 38.6327 230.107 38.6327 227.635 38.6327C227.723 36.0211 226.564 34.2284 224.154 33.2544C222.332 32.6675 220.466 32.3141 218.555 32.1939C212.199 31.8955 205.842 31.8955 199.486 32.1939C197.18 32.2536 195.01 32.8092 192.979 33.8604C191.624 34.9937 190.969 36.4582 191.011 38.254C191.011 39.7035 191.29 41.0923 191.844 42.4202C192.423 43.2294 193.204 43.7597 194.189 44.011C195.532 44.3401 196.894 44.5428 198.276 44.617C204.532 44.664 210.787 44.764 217.042 44.92C220.312 45.0003 223.54 45.4048 226.727 46.132C232.592 47.8379 235.366 51.7512 235.051 57.8733C235.304 61.0034 234.521 63.8319 232.705 66.3574C230.164 68.7026 227.162 70.0904 223.7 70.5237C218.534 71.2857 213.337 71.6645 208.113 71.6599C203.491 71.6539 198.901 71.2751 194.341 70.5237C191.683 70.0419 189.262 69.0314 187.076 67.4937C184.56 65.153 183.399 62.2487 183.596 58.7824C186.067 58.7824 188.54 58.7824 191.011 58.7824C190.929 62.0563 192.443 64.1516 195.551 65.0696C197.092 65.4636 198.655 65.715 200.243 65.8272C206.608 66.2044 212.964 66.1029 219.312 65.5242C221.659 65.3302 223.829 64.6227 225.819 63.4031C226.951 62.3729 227.531 61.0852 227.56 59.5399C227.852 57.4416 227.499 55.4721 226.5 53.6313C225.335 52.5345 223.947 51.9027 222.338 51.7376C221.085 51.5239 219.823 51.3724 218.555 51.2831C212.099 51.1179 205.641 50.9664 199.184 50.8286C195.651 50.7786 192.22 50.1726 188.892 49.0105C186.121 47.7485 184.482 45.6033 183.974 42.5717C183.426 39.8276 183.476 37.1006 184.125 34.3907C185.142 31.4037 187.134 29.3584 190.103 28.2549C193.18 27.1036 196.358 26.3966 199.638 26.1339C202.483 25.8932 205.308 25.7165 208.113 25.6036Z" fill="#697079"/>
<path opacity="0.975" fill-rule="evenodd" clip-rule="evenodd" d="M268.498 25.6036C272.731 25.5077 276.917 25.8865 281.059 26.7399C289.43 28.8585 293.994 34.2368 294.755 42.8748C295.158 45.5275 295.057 48.1531 294.453 50.7528C279.961 50.9043 265.456 50.9543 250.943 50.9043C250.949 53.7843 251.327 56.6129 252.078 59.3884C253.328 62.832 255.774 64.8273 259.418 65.3727C263.13 65.9165 266.862 66.1438 270.617 66.0544C274.37 66.1438 278.104 65.9165 281.816 65.3727C285.657 64.8379 287.573 62.6411 287.567 58.7824C290.038 58.7824 292.511 58.7824 294.983 58.7824C295.237 64.1107 292.917 67.7724 288.021 69.7662C283.747 71.1645 279.358 71.8705 274.854 71.8872C269.22 72.1826 263.62 71.8796 258.056 70.9782C253.535 70.2692 249.827 68.1739 246.932 64.6909C244.818 61.32 243.709 57.634 243.603 53.6313C243.231 48.5651 243.633 43.5658 244.814 38.6327C246.427 32.876 250.085 29.1138 255.786 27.3459C259.976 26.2715 264.214 25.6908 268.498 25.6036ZM264.866 31.9667C268.501 31.9112 272.133 31.987 275.762 32.1939C278.11 32.3406 280.33 32.9466 282.421 34.0119C285.436 35.978 287.075 38.7807 287.34 42.4203C287.458 43.5797 287.534 44.7413 287.567 45.9048C275.358 45.9048 263.151 45.9048 250.943 45.9048C250.913 43.1675 251.291 40.491 252.078 37.8752C253.08 35.7615 254.669 34.2716 256.845 33.4059C259.472 32.5512 262.146 32.0714 264.866 31.9667Z" fill="#6D747D"/>
</svg>
