<svg width="34" height="22" viewBox="0 0 34 22" fill="none" xmlns="http://www.w3.org/2000/svg">
<g id="Frame 13">
<g id="Group">
<path id="Vector" opacity="0.963" fill-rule="evenodd" clip-rule="evenodd" d="M28.7423 0C28.8378 0.00282381 28.9063 0.0491158 28.9478 0.138876C29.403 0.837792 29.8522 1.5399 30.2954 2.24516C27.9061 3.74923 25.5001 5.23058 23.0777 6.68919C23.0202 6.73465 22.9593 6.75007 22.895 6.73548C22.6533 6.39232 22.4173 6.04513 22.1869 5.69391C22.1564 5.64762 22.1564 5.60133 22.1869 5.55504C24.3807 3.70965 26.5658 1.85798 28.7423 0Z" fill="white"/>
</g>
<g id="Group_2">
<path id="Vector_2" opacity="0.974" fill-rule="evenodd" clip-rule="evenodd" d="M7.40691 7.82329C8.78134 7.81685 10.1518 7.88629 11.5183 8.0316C12.5788 8.13261 13.5534 8.47211 14.4419 9.05002C15.2476 9.77676 15.613 10.6949 15.5383 11.8044C14.7922 11.8044 14.046 11.8044 13.2999 11.8044C13.3265 11.0064 12.9763 10.4586 12.2492 10.161C11.6994 9.9817 11.136 9.8737 10.559 9.83699C8.64041 9.74579 6.72177 9.74579 4.80304 9.83699C4.10663 9.85523 3.45187 10.025 2.83873 10.3462C2.42996 10.6925 2.23201 11.14 2.24486 11.6887C2.24494 12.1316 2.32869 12.5559 2.49611 12.9617C2.67094 13.2089 2.90697 13.371 3.20418 13.4478C3.60952 13.5483 4.02065 13.6102 4.43759 13.6329C6.32608 13.6473 8.21424 13.6778 10.1021 13.7255C11.0894 13.75 12.0639 13.8736 13.0258 14.0958C14.7958 14.6171 15.6332 15.8128 15.5383 17.6835C15.6146 18.6399 15.3785 19.5041 14.8302 20.2758C14.0631 20.9924 13.157 21.4165 12.1121 21.5489C10.5524 21.7817 8.98394 21.8974 7.40691 21.8961C6.01174 21.8942 4.62607 21.7785 3.24986 21.5489C2.44755 21.4017 1.71666 21.0929 1.05713 20.623C0.297322 19.9078 -0.0529071 19.0204 0.00645189 17.9612C0.752587 17.9612 1.49873 17.9612 2.24486 17.9612C2.22029 18.9616 2.6771 19.6018 3.61532 19.8823C4.08036 20.0027 4.55239 20.0796 5.03145 20.1138C6.95283 20.2291 8.87147 20.1981 10.7874 20.0212C11.4961 19.962 12.1508 19.7458 12.7517 19.3731C13.0934 19.0584 13.2685 18.6649 13.277 18.1927C13.3651 17.5515 13.2585 16.9498 12.9573 16.3873C12.6054 16.0521 12.1866 15.8591 11.701 15.8087C11.3226 15.7434 10.9419 15.6971 10.559 15.6698C8.61008 15.6193 6.66097 15.573 4.71168 15.5309C3.64524 15.5156 2.60981 15.3305 1.60532 14.9754C0.768809 14.5898 0.273919 13.9343 0.120656 13.008C-0.0448031 12.1695 -0.0295728 11.3362 0.166338 10.5082C0.473096 9.59553 1.07458 8.97059 1.97077 8.6334C2.89935 8.28162 3.85866 8.06558 4.84873 7.98531C5.7075 7.91175 6.56024 7.85777 7.40691 7.82329Z" fill="white"/>
</g>
<g id="Group_3">
<path id="Vector_3" opacity="0.975" fill-rule="evenodd" clip-rule="evenodd" d="M26.0008 7.82329C27.2783 7.79399 28.5422 7.90972 29.7924 8.17048C32.3156 8.80079 33.6936 10.4287 33.9266 13.0543C33.9901 13.6857 34.0053 14.3185 33.9723 14.9523C33.9266 15.1374 33.8809 15.3226 33.8353 15.5078C29.4606 15.5541 25.0828 15.5693 20.7017 15.5541C20.709 16.3683 20.8079 17.1706 20.9987 17.9612C21.3229 19.1227 22.0767 19.7939 23.2599 19.9749C24.3805 20.1402 25.5073 20.2096 26.6404 20.1832C27.7734 20.2106 28.9003 20.1411 30.0208 19.9749C31.1806 19.8106 31.7592 19.1394 31.7567 17.9612C32.5029 17.9612 33.249 17.9612 33.9952 17.9612C34.0722 19.5889 33.3717 20.7073 31.8938 21.3174C30.6184 21.74 29.3089 21.9562 27.9652 21.9655C26.2494 22.0576 24.5439 21.965 22.8488 21.6877C20.195 21.1896 18.756 19.5773 18.5319 16.8502C18.3875 15.28 18.4636 13.7218 18.7603 12.1747C19.0861 10.5959 19.9465 9.43087 21.3413 8.67969C22.074 8.36287 22.8354 8.14682 23.6254 8.0316C24.4217 7.93096 25.2135 7.86153 26.0008 7.82329ZM24.9502 9.76755C26.0324 9.7507 27.1135 9.77385 28.1936 9.83699C30.7137 10.0573 31.9014 11.4537 31.7567 14.0264C28.0717 14.0264 24.3868 14.0264 20.7017 14.0264C20.708 13.2916 20.7917 12.5663 20.953 11.8507C21.2794 10.9029 21.9266 10.3088 22.8945 10.0684C23.5772 9.903 24.2624 9.80273 24.9502 9.76755Z" fill="white"/>
</g>
</g>
</svg>
